# xmcd
#
# Track frame offsets:
#	150
#	1978
#	12407
#	27465
#	43116
#	57645
#	62445
#	80270
#	97925
#	112818
#	121419
#	132107
#	158531
#	178399
#	194229
#	207579
#	221748
#	227634
#	243522
#	259775
#	281746
#	295432
#	306353
#	319890
#	335526
#
# Disc length: 4639 seconds
#
# Revision: 1
# Processed by: cddbd v1.5.2PL0 Copyright (c) Steve Scherf et al.
# Submitted via: audiograbber 1.83.01
#
DISCID=7b121d19
DTITLE=Various Artist - Oxford American 2015 Georgia
DYEAR=2015
DGENRE=
TTITLE0=James Brown - Cold Sweat (False Start)
TTITLE1=Sandy Gaye - Watch The Dog That Bring The Bone
TTITLE2=Larry Joe Wilson - Ohoopee River Bottomland
TTITLE3=Gram Parsons - Brass Buttons
TTITLE4=Ma Rainey And her Georgia Jazz Band - See See Rider Blues
TTITLE5=Precsious Bryant - Georgia Buck
TTITLE6=Jake Xerxes Fussell - Raggy Levy
TTITLE7=Killer Mike - Untitled
TTITLE8=Straight Street Holiness Church Choir - I Want The Lord To Do Something
TTITLE8=For Me
TTITLE9=Tut Taylor - Sweet Picking Time In Toomsboro, Georgia
TTITLE10=Sharon Jones and The Dap-Kings - Ain't No Chimneys In The Projects
TTITLE11=Drive-By Truckers - The Living Bubba
TTITLE12=Smoke - Awake
TTITLE13=Elf Power - The Winter Is Coming
TTITLE14=Indigo Girls - Tried To Be True
TTITLE15=Alice Swoboda - Potters Field
TTITLE16=Bessie Jones - Diamond Joe
TTITLE17=Ruby The Rabbit Foot - As Bad As I Am
TTITLE18=Otis Redding - I've Got Dreams To Remember (Rougher Dreams)
TTITLE19=OutKast - Aquemini
TTITLE20=Bobby Grant - Lonesome Atlanta Blues
TTITLE21=Pylon - Recent Title
TTITLE22=Allman Brothers Band - Midnight Rider
TTITLE23=Futurebirds - Misnight
TTITLE24=Henry Mancini and Johnny Mercer - Moon River (1961 Demo)
EXTD=
EXTT0=
EXTT1=
EXTT2=
EXTT3=
EXTT4=
EXTT5=
EXTT6=
EXTT7=
EXTT8=
EXTT9=
EXTT10=
EXTT11=
EXTT12=
EXTT13=
EXTT14=
EXTT15=
EXTT16=
EXTT17=
EXTT18=
EXTT19=
EXTT20=
EXTT21=
EXTT22=
EXTT23=
EXTT24=
PLAYORDER=
